<svg width="71" height="69" viewBox="0 0 71 69" fill="none" xmlns="http://www.w3.org/2000/svg">
<g filter="url(#filter0_d_567_19050)">
<ellipse cx="35.3544" cy="32.5" rx="28.8608" ry="28.5" fill="#F3F2F0"/>
<path d="M43.4685 28.1582C44.3035 27.532 45.0549 26.7805 45.6394 25.9038C44.8879 26.2378 44.0112 26.4883 43.1345 26.5718C44.053 26.0291 44.7209 25.1941 45.0549 24.1504C44.22 24.6514 43.2598 25.0271 42.2996 25.2358C41.4646 24.3591 40.3374 23.8582 39.085 23.8582C36.6636 23.8582 34.7014 25.8203 34.7014 28.2417C34.7014 28.5757 34.7432 28.9097 34.8267 29.2437C31.1946 29.0349 27.9382 27.2815 25.7673 24.6514C25.3916 25.2776 25.1829 26.0291 25.1829 26.864C25.1829 28.3669 25.9343 29.7029 27.145 30.4961C26.4353 30.4543 25.7256 30.2874 25.1411 29.9534V29.9951C25.1411 32.1243 26.644 33.8777 28.6479 34.2952C28.314 34.3787 27.8965 34.4622 27.5208 34.4622C27.2285 34.4622 26.978 34.4204 26.6858 34.3787C27.2285 36.1321 28.8567 37.3845 30.7771 37.4263C29.2742 38.5952 27.3955 39.3049 25.3499 39.3049C24.9741 39.3049 24.6401 39.2632 24.3062 39.2214C26.2266 40.4739 28.5227 41.1836 31.0276 41.1836C39.085 41.1836 43.4685 34.5457 43.4685 28.7427C43.4685 28.5339 43.4685 28.3669 43.4685 28.1582Z" fill="#1B171B"/>
</g>
<defs>
<filter id="filter0_d_567_19050" x="0.493652" y="0" width="69.7217" height="69" filterUnits="userSpaceOnUse" color-interpolation-filters="sRGB">
<feFlood flood-opacity="0" result="BackgroundImageFix"/>
<feColorMatrix in="SourceAlpha" type="matrix" values="0 0 0 0 0 0 0 0 0 0 0 0 0 0 0 0 0 0 127 0" result="hardAlpha"/>
<feOffset dy="2"/>
<feGaussianBlur stdDeviation="3"/>
<feComposite in2="hardAlpha" operator="out"/>
<feColorMatrix type="matrix" values="0 0 0 0 0 0 0 0 0 0 0 0 0 0 0 0 0 0 0.12 0"/>
<feBlend mode="normal" in2="BackgroundImageFix" result="effect1_dropShadow_567_19050"/>
<feBlend mode="normal" in="SourceGraphic" in2="effect1_dropShadow_567_19050" result="shape"/>
</filter>
</defs>
</svg>