<svg width="195" height="61" viewBox="0 0 195 61" fill="none" xmlns="http://www.w3.org/2000/svg">
<path d="M17.091 22.952C16.099 21.768 15.603 20.6 15.603 19.448C15.603 18.264 15.875 17.256 16.419 16.424C16.963 15.56 17.843 14.84 19.059 14.264C20.275 13.656 21.651 13.352 23.187 13.352H42.867C43.859 13.352 44.947 13.256 46.131 13.064C47.347 12.872 48.195 12.68 48.675 12.488V18.536L48.195 18.488V17.672C48.195 16.904 47.923 16.248 47.379 15.704C46.835 15.128 46.195 14.824 45.459 14.792H36.339V43.544C36.371 44.696 36.883 45.56 37.875 46.136C38.355 46.392 38.867 46.52 39.411 46.52H40.035V47H29.523V46.52H30.147C30.979 46.52 31.683 46.232 32.259 45.656C32.867 45.08 33.187 44.392 33.219 43.592V14.792H23.187C20.627 14.792 18.771 15.608 17.619 17.24C17.011 18.072 16.707 18.952 16.707 19.88C16.707 20.776 16.963 21.72 17.475 22.712L17.091 22.952ZM80.5399 46.52H80.9239V47H70.1239V46.52H70.5559C71.2279 46.52 71.7239 46.312 72.0439 45.896C72.3959 45.448 72.5719 45.032 72.5719 44.648C72.5719 44.264 72.5079 43.88 72.3799 43.496L69.3079 35.336H56.3479L53.1319 43.544C53.0039 43.928 52.9399 44.312 52.9399 44.696C52.9399 45.048 53.0999 45.448 53.4199 45.896C53.7719 46.312 54.2839 46.52 54.9559 46.52H55.3879V47H45.7399V46.52H46.1719C46.9719 46.52 47.7559 46.264 48.5239 45.752C49.2919 45.24 49.9159 44.488 50.3959 43.496L61.2439 17.672C62.4279 15.08 63.0199 13.432 63.0199 12.728H63.4519L76.3159 43.496C76.7639 44.488 77.3719 45.24 78.1399 45.752C78.9079 46.264 79.7079 46.52 80.5399 46.52ZM56.9239 33.896H68.7319L62.9719 18.488L56.9239 33.896ZM112.481 3.992C113.569 3.256 114.865 2.68 116.369 2.264C117.873 1.848 119.089 1.64 120.017 1.64C120.945 1.64 121.537 1.64 121.793 1.64V2.12C120.289 2.184 118.881 2.488 117.569 3.032C116.257 3.544 115.169 4.152 114.305 4.856C113.473 5.528 112.657 6.44 111.857 7.592C111.057 8.712 110.433 9.672 109.985 10.472C109.569 11.272 109.073 12.296 108.497 13.544L95.1533 42.728C93.9693 45.32 93.3773 46.968 93.3773 47.672H92.9453L79.4573 16.904C79.0093 15.88 78.3853 15.128 77.5853 14.648C76.8173 14.136 76.0333 13.88 75.2332 13.88H74.8492V13.4H85.6493V13.88H85.2173C84.2573 13.88 83.6173 14.328 83.2973 15.224C83.2333 15.416 83.2013 15.64 83.2013 15.896C83.2013 16.152 83.2813 16.472 83.4413 16.856L93.4733 42.008L105.377 13.544C107.265 9.096 109.633 5.912 112.481 3.992ZM145.014 13.88H144.246C143.574 13.88 142.982 14.104 142.47 14.552C141.99 14.968 141.734 15.496 141.702 16.136V35.144C141.702 38.888 140.518 41.912 138.15 44.216C135.782 46.52 132.63 47.672 128.694 47.672C124.758 47.672 121.558 46.536 119.094 44.264C116.662 41.96 115.446 38.936 115.446 35.192V16.28C115.446 15.32 115.03 14.616 114.198 14.168C113.814 13.976 113.382 13.88 112.902 13.88H112.134V13.4H121.878V13.88H121.11C120.406 13.88 119.814 14.104 119.334 14.552C118.854 14.968 118.598 15.512 118.566 16.184V34.52C118.566 38.008 119.494 40.824 121.35 42.968C123.238 45.112 125.75 46.184 128.886 46.184C132.022 46.184 134.566 45.176 136.518 43.16C138.47 41.112 139.446 38.44 139.446 35.144V16.184C139.414 15.512 139.158 14.968 138.678 14.552C138.198 14.104 137.606 13.88 136.902 13.88H136.134V13.4H145.014V13.88ZM150.926 46.52C151.758 46.52 152.462 46.232 153.038 45.656C153.646 45.048 153.966 44.328 153.998 43.496V16.616C153.998 15.848 153.694 15.208 153.086 14.696C152.478 14.152 151.758 13.88 150.926 13.88H150.35L150.302 13.4H164.366C165.358 13.4 166.43 13.304 167.582 13.112C168.766 12.92 169.598 12.728 170.078 12.536V18.584H169.598V17.72C169.598 16.952 169.326 16.296 168.782 15.752C168.27 15.208 167.646 14.92 166.91 14.888H157.118V29.72H165.23C165.87 29.688 166.414 29.448 166.862 29C167.31 28.552 167.534 27.992 167.534 27.32V26.648H168.014V34.232H167.534V33.512C167.534 32.872 167.31 32.328 166.862 31.88C166.446 31.432 165.918 31.192 165.278 31.16H157.118V45.512H163.982C166.35 45.512 168.158 44.984 169.406 43.928C170.654 42.872 171.694 41.304 172.526 39.224H173.006L170.222 47H150.302V46.52H150.926Z" fill="#1B171B"/>
</svg>