<svg width="38" height="38" viewBox="0 0 38 38" fill="none" xmlns="http://www.w3.org/2000/svg">
<path d="M9.50016 34.8337C8.62933 34.8337 7.88384 34.5236 7.2637 33.9035C6.64357 33.2833 6.3335 32.5378 6.3335 31.667V12.667C6.3335 11.7962 6.64357 11.0507 7.2637 10.4305C7.88384 9.81039 8.62933 9.50033 9.50016 9.50033H12.6668C12.6668 7.75866 13.287 6.26769 14.5272 5.02741C15.7675 3.78713 17.2585 3.16699 19.0002 3.16699C20.7418 3.16699 22.2328 3.78713 23.4731 5.02741C24.7134 6.26769 25.3335 7.75866 25.3335 9.50033H28.5002C29.371 9.50033 30.1165 9.81039 30.7366 10.4305C31.3568 11.0507 31.6668 11.7962 31.6668 12.667V31.667C31.6668 32.5378 31.3568 33.2833 30.7366 33.9035C30.1165 34.5236 29.371 34.8337 28.5002 34.8337H9.50016ZM9.50016 31.667H28.5002V12.667H25.3335V15.8337C25.3335 16.2823 25.1818 16.6583 24.8783 16.9618C24.5748 17.2653 24.1988 17.417 23.7502 17.417C23.3016 17.417 22.9255 17.2653 22.622 16.9618C22.3186 16.6583 22.1668 16.2823 22.1668 15.8337V12.667H15.8335V15.8337C15.8335 16.2823 15.6818 16.6583 15.3783 16.9618C15.0748 17.2653 14.6988 17.417 14.2502 17.417C13.8016 17.417 13.4255 17.2653 13.122 16.9618C12.8186 16.6583 12.6668 16.2823 12.6668 15.8337V12.667H9.50016V31.667ZM15.8335 9.50033H22.1668C22.1668 8.62949 21.8568 7.88401 21.2366 7.26387C20.6165 6.64373 19.871 6.33366 19.0002 6.33366C18.1293 6.33366 17.3838 6.64373 16.7637 7.26387C16.1436 7.88401 15.8335 8.62949 15.8335 9.50033Z" fill="#1B171B"/>
</svg>