<svg width="32" height="32" viewBox="0 0 32 32" fill="none" xmlns="http://www.w3.org/2000/svg">
<mask id="mask0_1158_97" style="mask-type:alpha" maskUnits="userSpaceOnUse" x="4" y="4" width="24" height="24">
<path d="M27.4285 16.2627C27.4285 15.2906 27.3507 14.5813 27.1823 13.8457H16.2333V18.2331H22.6601C22.5306 19.3234 21.8309 20.9654 20.276 22.0688L20.2542 22.2157L23.7161 24.9345L23.9559 24.9588C26.1586 22.8964 27.4285 19.862 27.4285 16.2627" fill="#4285F4"/>
<path d="M16.2326 27.8225C19.3812 27.8225 22.0245 26.7716 23.9552 24.9589L20.2753 22.0688C19.2906 22.7651 17.9689 23.2511 16.2326 23.2511C13.1488 23.2511 10.5314 21.1888 9.59837 18.3382L9.46161 18.35L5.86189 21.1743L5.81482 21.307C7.7325 25.169 11.6716 27.8225 16.2326 27.8225Z" fill="#34A853"/>
<path d="M9.59909 18.3382C9.35291 17.6026 9.21043 16.8144 9.21043 16C9.21043 15.1855 9.35291 14.3974 9.58614 13.6618L9.57962 13.5051L5.93479 10.6355L5.81554 10.693C5.02517 12.2956 4.57166 14.0953 4.57166 16C4.57166 17.9047 5.02517 19.7043 5.81554 21.307L9.59909 18.3382" fill="#FBBC05"/>
<path d="M16.2326 8.74881C18.4224 8.74881 19.8995 9.70775 20.7418 10.5091L24.033 7.25133C22.0117 5.34659 19.3813 4.17747 16.2326 4.17747C11.6716 4.17747 7.7325 6.83095 5.81482 10.6929L9.58542 13.6617C10.5314 10.8112 13.1488 8.74881 16.2326 8.74881" fill="#EB4335"/>
</mask>
<g mask="url(#mask0_1158_97)">
<rect width="32" height="32" fill="white"/>
</g>
</svg>
