<svg width="70" height="69" viewBox="0 0 70 69" fill="none" xmlns="http://www.w3.org/2000/svg">
<g filter="url(#filter0_d_567_19051)">
<ellipse cx="34.8608" cy="32.5" rx="28.8608" ry="28.5" fill="#F3F2F0"/>
<path d="M34.4999 27.6989C31.828 27.6989 29.6989 29.8698 29.6989 32.4999C29.6989 35.1718 31.828 37.3009 34.4999 37.3009C37.13 37.3009 39.3009 35.1718 39.3009 32.4999C39.3009 29.8698 37.13 27.6989 34.4999 27.6989ZM34.4999 35.631C32.7882 35.631 31.3688 34.2533 31.3688 32.4999C31.3688 30.7882 32.7465 29.4105 34.4999 29.4105C36.2115 29.4105 37.5892 30.7882 37.5892 32.4999C37.5892 34.2533 36.2115 35.631 34.4999 35.631ZM40.5951 27.5319C40.5951 26.9056 40.0941 26.4047 39.4679 26.4047C38.8417 26.4047 38.3407 26.9056 38.3407 27.5319C38.3407 28.1581 38.8417 28.6591 39.4679 28.6591C40.0941 28.6591 40.5951 28.1581 40.5951 27.5319ZM43.7679 28.6591C43.6844 27.1561 43.3505 25.8202 42.265 24.7347C41.1796 23.6493 39.8436 23.3153 38.3407 23.2318C36.796 23.1483 32.162 23.1483 30.6173 23.2318C29.1144 23.3153 27.8202 23.6493 26.693 24.7347C25.6075 25.8202 25.2736 27.1561 25.1901 28.6591C25.1066 30.2037 25.1066 34.8378 25.1901 36.3824C25.2736 37.8854 25.6075 39.1796 26.693 40.3068C27.8202 41.3922 29.1144 41.7262 30.6173 41.8097C32.162 41.8932 36.796 41.8932 38.3407 41.8097C39.8436 41.7262 41.1796 41.3922 42.265 40.3068C43.3505 39.1796 43.6844 37.8854 43.7679 36.3824C43.8514 34.8378 43.8514 30.2037 43.7679 28.6591ZM41.764 38.0106C41.4718 38.8456 40.8038 39.4718 40.0106 39.8058C38.7582 40.3068 35.8358 40.1815 34.4999 40.1815C33.1222 40.1815 30.1998 40.3068 28.9891 39.8058C28.1542 39.4718 27.528 38.8456 27.194 38.0106C26.693 36.7999 26.8182 33.8776 26.8182 32.4999C26.8182 31.1639 26.693 28.2416 27.194 26.9891C27.528 26.1959 28.1542 25.5697 28.9891 25.2357C30.1998 24.7347 33.1222 24.86 34.4999 24.86C35.8358 24.86 38.7582 24.7347 40.0106 25.2357C40.8038 25.528 41.4301 26.1959 41.764 26.9891C42.265 28.2416 42.1398 31.1639 42.1398 32.4999C42.1398 33.8776 42.265 36.7999 41.764 38.0106Z" fill="#1B171B"/>
</g>
<defs>
<filter id="filter0_d_567_19051" x="0" y="0" width="69.7217" height="69" filterUnits="userSpaceOnUse" color-interpolation-filters="sRGB">
<feFlood flood-opacity="0" result="BackgroundImageFix"/>
<feColorMatrix in="SourceAlpha" type="matrix" values="0 0 0 0 0 0 0 0 0 0 0 0 0 0 0 0 0 0 127 0" result="hardAlpha"/>
<feOffset dy="2"/>
<feGaussianBlur stdDeviation="3"/>
<feComposite in2="hardAlpha" operator="out"/>
<feColorMatrix type="matrix" values="0 0 0 0 0 0 0 0 0 0 0 0 0 0 0 0 0 0 0.12 0"/>
<feBlend mode="normal" in2="BackgroundImageFix" result="effect1_dropShadow_567_19051"/>
<feBlend mode="normal" in="SourceGraphic" in2="effect1_dropShadow_567_19051" result="shape"/>
</filter>
</defs>
</svg>

