<svg width="70" height="70" viewBox="0 0 70 70" fill="none" xmlns="http://www.w3.org/2000/svg">
<g clip-path="url(#clip0_645_19082)">
<path d="M35 0C20.4271 0 8.61328 11.8137 8.61328 26.3867C8.61328 31.2603 9.56721 36.2939 12.3047 39.9219L35 70L57.6953 39.9219C60.1818 36.6266 61.3867 30.8011 61.3867 26.3867C61.3867 11.8137 49.573 0 35 0ZM35 15.2826C41.1318 15.2826 46.1041 20.255 46.1041 26.3867C46.1041 32.5185 41.1318 37.4908 35 37.4908C28.8682 37.4908 23.8959 32.5185 23.8959 26.3867C23.8959 20.255 28.8682 15.2826 35 15.2826Z" fill="black"/>
</g>
<defs>
<clipPath id="clip0_645_19082">
<rect width="70" height="70" fill="white"/>
</clipPath>
</defs>
</svg>
