<svg width="39" height="38" viewBox="0 0 39 38" fill="none" xmlns="http://www.w3.org/2000/svg">
<path d="M9.59535 27.0753C10.9412 26.0462 12.4453 25.2347 14.1078 24.641C15.7703 24.0472 17.512 23.7503 19.3328 23.7503C21.1537 23.7503 22.8953 24.0472 24.5578 24.641C26.2203 25.2347 27.7245 26.0462 29.0703 27.0753C29.994 25.9934 30.7131 24.7663 31.2276 23.3941C31.7422 22.0219 31.9995 20.5573 31.9995 19.0003C31.9995 15.4906 30.7658 12.5021 28.2985 10.0347C25.8311 7.56734 22.8426 6.33366 19.3328 6.33366C15.8231 6.33366 12.8346 7.56734 10.3672 10.0347C7.89986 12.5021 6.66618 15.4906 6.66618 19.0003C6.66618 20.5573 6.92347 22.0219 7.43805 23.3941C7.95264 24.7663 8.67173 25.9934 9.59535 27.0753ZM19.3328 20.5837C17.7759 20.5837 16.4631 20.0493 15.3943 18.9805C14.3256 17.9118 13.7912 16.5989 13.7912 15.042C13.7912 13.485 14.3256 12.1722 15.3943 11.1035C16.4631 10.0347 17.7759 9.50033 19.3328 9.50033C20.8898 9.50033 22.2026 10.0347 23.2714 11.1035C24.3401 12.1722 24.8745 13.485 24.8745 15.042C24.8745 16.5989 24.3401 17.9118 23.2714 18.9805C22.2026 20.0493 20.8898 20.5837 19.3328 20.5837ZM19.3328 34.8337C17.1426 34.8337 15.0842 34.418 13.1578 33.5868C11.2315 32.7555 9.55576 31.6274 8.13076 30.2024C6.70576 28.7774 5.57764 27.1017 4.74639 25.1753C3.91514 23.2489 3.49951 21.1906 3.49951 19.0003C3.49951 16.81 3.91514 14.7517 4.74639 12.8253C5.57764 10.8989 6.70576 9.22324 8.13076 7.79824C9.55576 6.37324 11.2315 5.24512 13.1578 4.41387C15.0842 3.58262 17.1426 3.16699 19.3328 3.16699C21.5231 3.16699 23.5815 3.58262 25.5078 4.41387C27.4342 5.24512 29.1099 6.37324 30.5349 7.79824C31.9599 9.22324 33.0881 10.8989 33.9193 12.8253C34.7506 14.7517 35.1662 16.81 35.1662 19.0003C35.1662 21.1906 34.7506 23.2489 33.9193 25.1753C33.0881 27.1017 31.9599 28.7774 30.5349 30.2024C29.1099 31.6274 27.4342 32.7555 25.5078 33.5868C23.5815 34.418 21.5231 34.8337 19.3328 34.8337ZM19.3328 31.667C20.7315 31.667 22.0509 31.4625 23.2912 31.0534C24.5315 30.6444 25.6662 30.0573 26.6953 29.292C25.6662 28.5267 24.5315 27.9396 23.2912 27.5305C22.0509 27.1215 20.7315 26.917 19.3328 26.917C17.9342 26.917 16.6148 27.1215 15.3745 27.5305C14.1342 27.9396 12.9995 28.5267 11.9703 29.292C12.9995 30.0573 14.1342 30.6444 15.3745 31.0534C16.6148 31.4625 17.9342 31.667 19.3328 31.667ZM19.3328 17.417C20.019 17.417 20.5863 17.1927 21.0349 16.7441C21.4835 16.2955 21.7078 15.7281 21.7078 15.042C21.7078 14.3559 21.4835 13.7885 21.0349 13.3399C20.5863 12.8913 20.019 12.667 19.3328 12.667C18.6467 12.667 18.0794 12.8913 17.6308 13.3399C17.1822 13.7885 16.9578 14.3559 16.9578 15.042C16.9578 15.7281 17.1822 16.2955 17.6308 16.7441C18.0794 17.1927 18.6467 17.417 19.3328 17.417Z" fill="#1B171B"/>
</svg>